HIERARCHY
ROOT Hips
{
	OFFSET 0.717293 88.513641 3.606412
	CHANNELS 6 Xposition Yposition Zposition Zrotation Yrotation Xrotation 
	JOINT Spine
	{
		OFFSET -0.000000 8.814246 -2.080107
		CHANNELS 3 Zrotation Yrotation Xrotation
		JOINT Spine1
		{
			OFFSET -0.000000 8.844141 -0.000000
			CHANNELS 3 Zrotation Yrotation Xrotation
			JOINT Spine2
			{
				OFFSET 0.000000 11.682268 0.000000
				CHANNELS 3 Zrotation Yrotation Xrotation
				JOINT Spine3
				{
					OFFSET 0.000000 11.746700 -0.000000
					CHANNELS 3 Zrotation Yrotation Xrotation
					JOINT Neck
					{
						OFFSET 0.000000 17.658264 0.000000
						CHANNELS 3 Zrotation Yrotation Xrotation
						JOINT Neck1
						{
							OFFSET -0.000000 5.101515 -0.000000
							CHANNELS 3 Zrotation Yrotation Xrotation
							JOINT Head
							{
								OFFSET -0.000000 5.101515 -0.000000
								CHANNELS 3 Zrotation Yrotation Xrotation
								JOINT HeadEnd
								{
									OFFSET -0.000000 11.655085 -0.000000
									CHANNELS 3 Zrotation Yrotation Xrotation
									End Site
									{
										OFFSET 0.000000 0.000000 0.000000
									}
								}
							}
						}
					}
					JOINT RightShoulder
					{
						OFFSET -2.625389 11.175210 -0.000000
						CHANNELS 3 Zrotation Yrotation Xrotation
						JOINT RightArm
						{
							OFFSET 0.000000 10.434715 0.000000
							CHANNELS 3 Zrotation Yrotation Xrotation
							JOINT RightForeArm
							{
								OFFSET 0.000000 29.628420 0.000000
								CHANNELS 3 Zrotation Yrotation Xrotation
								JOINT RightHand
								{
									OFFSET 0.000000 22.857611 -0.000000
									CHANNELS 3 Zrotation Yrotation Xrotation
									JOINT RightHandThumb1
									{
										OFFSET -2.867323 3.959563 2.944291
										CHANNELS 3 Zrotation Yrotation Xrotation
										JOINT RightHandThumb2
										{
											OFFSET 0.000000 3.350399 -0.000000
											CHANNELS 3 Zrotation Yrotation Xrotation
											JOINT RightHandThumb3
											{
												OFFSET 0.000000 3.756509 -0.000000
												CHANNELS 3 Zrotation Yrotation Xrotation
												JOINT RightHandThumb4
												{
													OFFSET -0.000000 3.147345 -0.000000
													CHANNELS 3 Zrotation Yrotation Xrotation
													End Site
													{
														OFFSET 0.000000 0.000000 0.000000
													}
												}
											}
										}
									}
									JOINT RightHandIndex1
									{
										OFFSET -0.086752 10.030893 2.345280
										CHANNELS 3 Zrotation Yrotation Xrotation
										JOINT RightHandIndex2
										{
											OFFSET -0.000000 4.061090 -0.000000
											CHANNELS 3 Zrotation Yrotation Xrotation
											JOINT RightHandIndex3
											{
												OFFSET -0.000000 3.248873 0.000000
												CHANNELS 3 Zrotation Yrotation Xrotation
												JOINT RightHandIndex4
												{
													OFFSET -0.000000 2.639709 0.000000
													CHANNELS 3 Zrotation Yrotation Xrotation
													End Site
													{
														OFFSET 0.000000 0.000000 0.000000
													}
												}
											}
										}
									}
									JOINT RightHandMiddle1
									{
										OFFSET 0.104102 9.502952 0.006768
										CHANNELS 3 Zrotation Yrotation Xrotation
										JOINT RightHandMiddle2
										{
											OFFSET 0.000000 4.568727 -0.000000
											CHANNELS 3 Zrotation Yrotation Xrotation
											JOINT RightHandMiddle3
											{
												OFFSET 0.000000 3.654981 -0.000000
												CHANNELS 3 Zrotation Yrotation Xrotation
												JOINT RightHandMiddle4
												{
													OFFSET 0.000000 2.741236 0.000000
													CHANNELS 3 Zrotation Yrotation Xrotation
													End Site
													{
														OFFSET 0.000000 0.000000 0.000000
													}
												}
											}
										}
									}
									JOINT RightHandRing1
									{
										OFFSET 0.086752 8.921708 -2.267442
										CHANNELS 3 Zrotation Yrotation Xrotation
										JOINT RightHandRing2
										{
											OFFSET -0.000000 4.061090 -0.000000
											CHANNELS 3 Zrotation Yrotation Xrotation
											JOINT RightHandRing3
											{
												OFFSET -0.000000 3.654981 0.000000
												CHANNELS 3 Zrotation Yrotation Xrotation
												JOINT RightHandRing4
												{
													OFFSET -0.000000 2.741236 0.000000
													CHANNELS 3 Zrotation Yrotation Xrotation
													End Site
													{
														OFFSET 0.000000 0.000000 0.000000
													}
												}
											}
										}
									}
									JOINT RightHandPinky1
									{
										OFFSET -0.173504 7.976997 -4.467199
										CHANNELS 3 Zrotation Yrotation Xrotation
										JOINT RightHandPinky2
										{
											OFFSET -0.000000 3.350399 -0.000000
											CHANNELS 3 Zrotation Yrotation Xrotation
											JOINT RightHandPinky3
											{
												OFFSET -0.000000 2.842763 0.000000
												CHANNELS 3 Zrotation Yrotation Xrotation
												JOINT RightHandPinky4
												{
													OFFSET 0.000000 2.639709 -0.000000
													CHANNELS 3 Zrotation Yrotation Xrotation
													End Site
													{
														OFFSET 0.000000 0.000000 0.000000
													}
												}
											}
										}
									}
									JOINT RightForeArmEnd
									{
										OFFSET 0.000000 0.000000 0.000000
										CHANNELS 3 Zrotation Yrotation Xrotation
										End Site
										{
											OFFSET 0.000000 0.000000 0.000000
										}
									}
								}
								JOINT RightArmEnd
								{
									OFFSET 0.000000 0.000000 0.000000
									CHANNELS 3 Zrotation Yrotation Xrotation
									End Site
									{
										OFFSET 0.000000 0.000000 0.000000
									}
								}
							}
						}
					}
					JOINT LeftShoulder
					{
						OFFSET 2.625389 11.175210 -0.000000
						CHANNELS 3 Zrotation Yrotation Xrotation
						JOINT LeftArm
						{
							OFFSET 0.000000 10.813635 0.000000
							CHANNELS 3 Zrotation Yrotation Xrotation
							JOINT LeftForeArm
							{
								OFFSET -0.000000 28.724781 -0.000000
								CHANNELS 3 Zrotation Yrotation Xrotation
								JOINT LeftHand
								{
									OFFSET 0.644384 25.716167 -0.328871
									CHANNELS 3 Zrotation Yrotation Xrotation
									JOINT LeftHandThumb1
									{
										OFFSET 2.867323 3.959563 2.944291
										CHANNELS 3 Zrotation Yrotation Xrotation
										JOINT LeftHandThumb2
										{
											OFFSET 0.000000 3.350399 0.000000
											CHANNELS 3 Zrotation Yrotation Xrotation
											JOINT LeftHandThumb3
											{
												OFFSET 0.000000 3.756509 0.000000
												CHANNELS 3 Zrotation Yrotation Xrotation
												JOINT LeftHandThumb4
												{
													OFFSET -0.000000 3.100000 0.000000
													CHANNELS 3 Zrotation Yrotation Xrotation
													End Site
													{
														OFFSET 0.000000 0.000000 0.000000
													}
												}
											}
										}
									}
									JOINT LeftHandIndex1
									{
										OFFSET 0.086752 10.030893 2.345280
										CHANNELS 3 Zrotation Yrotation Xrotation
										JOINT LeftHandIndex2
										{
											OFFSET -0.000000 4.061090 -0.000000
											CHANNELS 3 Zrotation Yrotation Xrotation
											JOINT LeftHandIndex3
											{
												OFFSET -0.000000 3.248873 -0.000000
												CHANNELS 3 Zrotation Yrotation Xrotation
												JOINT LeftHandIndex4
												{
													OFFSET -0.000000 2.639709 -0.000000
													CHANNELS 3 Zrotation Yrotation Xrotation
													End Site
													{
														OFFSET 0.000000 0.000000 0.000000
													}
												}
											}
										}
									}
									JOINT LeftHandMiddle1
									{
										OFFSET -0.104102 9.502952 0.006768
										CHANNELS 3 Zrotation Yrotation Xrotation
										JOINT LeftHandMiddle2
										{
											OFFSET 0.000000 4.568727 -0.000000
											CHANNELS 3 Zrotation Yrotation Xrotation
											JOINT LeftHandMiddle3
											{
												OFFSET 0.000000 3.654981 0.000000
												CHANNELS 3 Zrotation Yrotation Xrotation
												JOINT LeftHandMiddle4
												{
													OFFSET 0.000000 2.741236 0.000000
													CHANNELS 3 Zrotation Yrotation Xrotation
													End Site
													{
														OFFSET 0.000000 0.000000 0.000000
													}
												}
											}
										}
									}
									JOINT LeftHandRing1
									{
										OFFSET -0.086752 8.921708 -2.267442
										CHANNELS 3 Zrotation Yrotation Xrotation
										JOINT LeftHandRing2
										{
											OFFSET -0.000000 4.061090 -0.000000
											CHANNELS 3 Zrotation Yrotation Xrotation
											JOINT LeftHandRing3
											{
												OFFSET 0.000000 3.654981 0.000000
												CHANNELS 3 Zrotation Yrotation Xrotation
												JOINT LeftHandRing4
												{
													OFFSET -0.000000 2.741236 -0.000000
													CHANNELS 3 Zrotation Yrotation Xrotation
													End Site
													{
														OFFSET 0.000000 0.000000 0.000000
													}
												}
											}
										}
									}
									JOINT LeftHandPinky1
									{
										OFFSET 0.173504 7.976997 -4.467199
										CHANNELS 3 Zrotation Yrotation Xrotation
										JOINT LeftHandPinky2
										{
											OFFSET 0.000000 3.350399 -0.000000
											CHANNELS 3 Zrotation Yrotation Xrotation
											JOINT LeftHandPinky3
											{
												OFFSET 0.000000 2.842763 0.000000
												CHANNELS 3 Zrotation Yrotation Xrotation
												JOINT LeftHandPinky4
												{
													OFFSET -0.000000 2.639709 -0.000000
													CHANNELS 3 Zrotation Yrotation Xrotation
													End Site
													{
														OFFSET 0.000000 0.000000 0.000000
													}
												}
											}
										}
									}
									JOINT LeftForeArmEnd
									{
										OFFSET 0.000000 0.000000 0.000000
										CHANNELS 3 Zrotation Yrotation Xrotation
										End Site
										{
											OFFSET 0.000000 0.000000 0.000000
										}
									}
								}
								JOINT LeftArmEnd
								{
									OFFSET 0.000000 0.000000 0.000000
									CHANNELS 3 Zrotation Yrotation Xrotation
									End Site
									{
										OFFSET 0.000000 0.000000 0.000000
									}
								}
							}
						}
					}
				}
			}
		}
	}
	JOINT RightUpLeg
	{
		OFFSET -11.289943 0.000000 -0.000000
		CHANNELS 3 Zrotation Yrotation Xrotation
		JOINT RightLeg
		{
			OFFSET 0.000000 -38.200325 -0.000000
			CHANNELS 3 Zrotation Yrotation Xrotation
			JOINT RightFoot
			{
				OFFSET -0.000000 -39.900856 -0.000000
				CHANNELS 3 Zrotation Yrotation Xrotation
				JOINT RightToeBase
				{
					OFFSET -0.000000 0.000000 15.261641
					CHANNELS 3 Zrotation Yrotation Xrotation
					JOINT RightToeBaseEnd
					{
						OFFSET 0.000000 0.000000 7.370709
						CHANNELS 3 Zrotation Yrotation Xrotation
						End Site
						{
							OFFSET 0.000000 0.000000 0.000000
						}
					}
				}
				JOINT RightLegEnd
				{
					OFFSET 0.000000 0.000000 0.000000
					CHANNELS 3 Zrotation Yrotation Xrotation
					End Site
					{
						OFFSET 0.000000 0.000000 0.000000
					}
				}
			}
			JOINT RightUpLegEnd
			{
				OFFSET 0.000000 0.000000 0.000000
				CHANNELS 3 Zrotation Yrotation Xrotation
				End Site
				{
					OFFSET 0.000000 0.000000 0.000000
				}
			}
		}
	}
	JOINT LeftUpLeg
	{
		OFFSET 11.315661 -0.000000 -0.000000
		CHANNELS 3 Zrotation Yrotation Xrotation
		JOINT LeftLeg
		{
			OFFSET 0.000000 -38.200325 0.000000
			CHANNELS 3 Zrotation Yrotation Xrotation
			JOINT LeftFoot
			{
				OFFSET 0.000000 -39.900856 0.000000
				CHANNELS 3 Zrotation Yrotation Xrotation
				JOINT LeftToeBase
				{
					OFFSET 0.000000 -0.000000 15.261641
					CHANNELS 3 Zrotation Yrotation Xrotation
					JOINT LeftToeBaseEnd
					{
						OFFSET -0.000000 0.000000 7.539996
						CHANNELS 3 Zrotation Yrotation Xrotation
						End Site
						{
							OFFSET 0.000000 0.000000 0.000000
						}
					}
				}
				JOINT LeftLegEnd
				{
					OFFSET 0.000000 0.000000 0.000000
					CHANNELS 3 Zrotation Yrotation Xrotation
					End Site
					{
						OFFSET 0.000000 0.000000 0.000000
					}
				}
			}
			JOINT LeftUpLegEnd
			{
				OFFSET 0.000000 0.000000 0.000000
				CHANNELS 3 Zrotation Yrotation Xrotation
				End Site
				{
					OFFSET 0.000000 0.000000 0.000000
				}
			}
		}
	}
}
MOTION
Frames: 4
Frame Time: 0.016667
6.563155 87.283112 8.482460 0.490251 -0.627297 -12.075627 1.311908 0.053483 7.811399 0.218921 0.041081 1.818269 -1.987343 0.934691 4.928739 -1.504614 -0.007724 4.620967 0.230569 -0.415909 3.838508 0.089772 0.096114 -4.417478 0.099456 -0.927202 -21.391792 0.000000 0.000000 0.000000 86.611610 0.446162 8.781610 56.964733 6.526496 11.550182 -0.899934 17.649679 96.442719 8.996265 25.998350 5.279924 7.961695 -1.558013 40.979214 -0.000001 0.000006 -19.524780 0.000002 0.000054 -13.256851 0.000005 0.000007 -0.000002 -1.475713 0.130885 2.324557 1.493143 -0.082062 0.248365 1.216695 -0.046805 0.191858 -0.000005 0.000020 0.000006 -1.202935 0.015638 -2.731292 1.390175 -0.041184 0.087606 1.422683 -0.015312 0.074589 -0.000003 0.000076 0.000003 1.903863 -0.052521 -9.377095 2.415244 0.069737 -0.150804 2.512326 0.033446 -0.100638 0.000026 -0.000802 0.000003 4.870415 -0.073440 -17.375511 3.945195 0.211538 -0.317631 3.910359 0.099781 -0.316757 -0.001199 0.000010 -0.000018 0.000000 0.000000 0.000000 0.000000 0.000000 0.000000 -85.442238 -0.511667 3.392131 -69.947052 -5.818670 -8.814846 -0.183843 -15.248695 111.839035 -46.979713 -49.676197 31.920757 -6.941802 1.343304 41.395721 0.000015 0.000006 -17.482159 -0.000047 -0.000029 -12.033849 0.000778 0.000021 0.000199 3.012825 0.101389 3.476716 -0.540971 -0.077477 -0.133958 -0.633028 -0.060183 -0.079189 0.000008 -0.000470 -0.000010 0.589676 0.047494 -2.368984 -1.301675 -0.040871 -0.061644 -1.240507 -0.013853 -0.045869 -0.000568 0.000015 -0.000041 -6.755244 -0.033611 -10.839896 -4.316894 0.075920 0.040227 -3.919835 0.023458 0.035382 -0.000045 0.000015 0.000001 -12.425007 -0.150856 -20.225496 -7.923983 0.154617 0.150392 -8.055409 0.077470 0.075149 -0.000630 0.000008 -0.000035 0.000000 0.000000 0.000000 0.000000 0.000000 0.000000 -6.047777 -14.180862 18.847940 -0.105641 -0.884348 5.076570 1.165495 -9.536097 15.538717 -1.178483 1.097934 -17.233467 0.000000 0.000000 0.000000 0.000000 0.000000 0.000000 0.000000 0.000000 0.000000 2.867446 -0.941062 11.976868 0.113386 0.628739 10.342023 0.241012 3.495742 17.103285 0.640100 -0.675928 -20.231421 0.000000 0.000000 0.000000 0.000000 0.000000 0.000000 0.000000 0.000000 0.000000 
6.575070 87.302650 8.506304 0.466217 -0.713501 -12.046050 1.320612 0.057150 7.800543 0.194494 0.052146 1.812251 -1.952641 0.971607 4.881538 -1.549852 0.022796 4.607966 0.254798 -0.394659 3.787351 0.085104 0.104023 -4.442753 0.112350 -0.917496 -21.399918 0.000000 0.000000 0.000000 86.477028 0.450850 8.863734 56.613552 6.320528 11.644891 -0.873516 17.643833 96.514915 10.196651 26.889811 5.655790 8.128651 -1.580273 40.897411 -0.000001 0.000007 -19.948339 0.000002 0.000053 -13.541140 0.000005 0.000006 -0.000002 -0.583291 0.132087 2.022585 1.801214 -0.089451 0.267241 1.523009 -0.054107 0.208006 -0.000005 0.000020 0.000005 -0.309880 0.015030 -2.942101 1.698777 -0.043812 0.093539 1.732696 -0.017403 0.079307 -0.000003 0.000075 0.000003 2.858011 -0.052485 -9.457459 2.801286 0.073830 -0.154050 2.895703 0.035777 -0.103126 0.000026 -0.000826 0.000002 5.822245 -0.074006 -17.312748 4.363785 0.219545 -0.318186 4.324762 0.106707 -0.318511 -0.001209 0.000010 -0.000017 0.000000 0.000000 0.000000 0.000000 0.000000 0.000000 -85.341606 -0.522082 3.401178 -69.669754 -5.919219 -8.706322 -0.189508 -15.194352 112.172028 -48.803825 -50.083111 33.135086 -7.147021 1.372407 41.296921 0.000014 0.000006 -17.988968 -0.000043 -0.000029 -12.381200 0.000745 0.000021 0.000208 1.855422 0.101809 2.904843 -0.833201 -0.080698 -0.138665 -0.925795 -0.063552 -0.082182 0.000010 -0.000480 -0.000010 -0.519146 0.047772 -2.775641 -1.617331 -0.042068 -0.062249 -1.555833 -0.014715 -0.046611 -0.000574 0.000015 -0.000036 -7.948548 -0.034174 -11.021276 -4.789679 0.077688 0.039035 -4.381325 0.024531 0.034122 -0.000032 0.000014 0.000001 -13.655366 -0.154045 -20.186129 -8.472622 0.159400 0.141726 -8.599364 0.081083 0.067414 -0.000652 0.000008 -0.000035 0.000000 0.000000 0.000000 0.000000 0.000000 0.000000 -6.021175 -14.068043 18.848642 -0.106001 -0.887421 4.992867 1.154471 -9.416203 15.611761 -1.176686 1.105841 -17.247736 0.000000 0.000000 0.000000 0.000000 0.000000 0.000000 0.000000 0.000000 0.000000 2.893756 -0.903465 11.976450 0.113301 0.629478 10.324952 0.245985 3.535133 17.115362 0.639906 -0.671700 -20.237268 0.000000 0.000000 0.000000 0.000000 0.000000 0.000000 0.000000 0.000000 0.000000 
6.589409 87.322830 8.527184 0.445117 -0.783325 -12.009691 1.329379 0.060299 7.788958 0.167881 0.063026 1.799990 -1.912871 1.000010 4.835565 -1.598098 0.052759 4.589992 0.268596 -0.366754 3.739380 0.083230 0.115604 -4.463779 0.123542 -0.909743 -21.405901 0.000000 0.000000 0.000000 86.333900 0.459630 8.950063 56.259171 6.144833 11.730507 -0.847996 17.647503 96.641281 11.532281 27.897587 6.131079 8.316683 -1.604588 40.806023 -0.000001 0.000007 -20.423971 0.000002 0.000053 -13.861279 0.000004 0.000006 -0.000002 0.414640 0.133211 1.705399 2.171850 -0.097420 0.285770 1.892303 -0.061967 0.223819 -0.000004 0.000020 0.000005 0.684052 0.014401 -3.158504 2.069172 -0.046577 0.099355 2.105400 -0.019588 0.083857 -0.000004 0.000072 0.000003 3.905839 -0.052158 -9.535487 3.247759 0.078068 -0.156888 3.339122 0.038180 -0.105306 0.000026 -0.000848 0.000002 6.856630 -0.074167 -17.238150 4.834293 0.228349 -0.317512 4.791224 0.114358 -0.319325 -0.001219 0.000010 -0.000016 0.000000 0.000000 0.000000 0.000000 0.000000 0.000000 -85.220230 -0.534607 3.419654 -69.386902 -6.095783 -8.550036 -0.200074 -15.152892 112.482338 -50.549248 -50.555950 34.381062 -7.339697 1.399268 41.204311 0.000013 0.000006 -18.465651 -0.000039 -0.000029 -12.707385 0.000712 0.000021 0.000224 0.786466 0.102056 2.378907 -1.141649 -0.084748 -0.146503 -1.235226 -0.067868 -0.087971 0.000011 -0.000482 -0.000010 -1.537828 0.047993 -3.146444 -1.948244 -0.043625 -0.064089 -1.886142 -0.015879 -0.048333 -0.000571 0.000015 -0.000031 -9.045705 -0.034712 -11.176779 -5.262483 0.080120 0.039854 -4.844007 0.026124 0.034333 -0.000023 0.000014 0.000001 -14.793480 -0.156942 -20.130011 -9.013652 0.166090 0.139561 -9.136012 0.086281 0.065007 -0.000676 0.000008 -0.000035 0.000000 0.000000 0.000000 0.000000 0.000000 0.000000 -6.002130 -13.958284 18.848507 -0.106420 -0.890915 4.898471 1.150561 -9.290139 15.688505 -1.175867 1.114255 -17.262543 0.000000 0.000000 0.000000 0.000000 0.000000 0.000000 0.000000 0.000000 0.000000 2.916182 -0.862945 11.970406 0.113124 0.630718 10.295730 0.252921 3.569431 17.133749 0.639284 -0.668572 -20.244411 0.000000 0.000000 0.000000 0.000000 0.000000 0.000000 0.000000 0.000000 0.000000 
6.606410 87.342453 8.545376 0.427936 -0.836006 -11.967552 1.337190 0.062576 7.778151 0.139952 0.073070 1.780091 -1.868209 1.018226 4.793819 -1.647137 0.080957 4.565146 0.271353 -0.327414 3.700686 0.085252 0.136046 -4.477563 0.130730 -0.904735 -21.411018 0.000000 0.000000 0.000000 86.189659 0.472287 9.040514 55.920570 6.014666 11.812078 -0.824570 17.664261 96.837189 13.013801 28.982500 6.732977 8.524784 -1.630376 40.706173 -0.000001 0.000008 -20.947208 0.000002 0.000052 -14.214667 0.000004 0.000006 -0.000002 1.509146 0.134348 1.375484 2.616615 -0.105615 0.302746 2.335791 -0.070073 0.238303 -0.000004 0.000020 0.000005 1.767747 0.013803 -3.377927 2.512004 -0.049361 0.104659 2.551478 -0.021759 0.087929 -0.000004 0.000070 0.000003 5.036003 -0.051566 -9.609939 3.764108 0.082266 -0.158878 3.851981 0.040534 -0.106818 0.000026 -0.000865 0.000002 7.961263 -0.073998 -17.152166 5.364455 0.237425 -0.314566 5.317286 0.122255 -0.318082 -0.001231 0.000010 -0.000015 0.000000 0.000000 0.000000 0.000000 0.000000 0.000000 -85.089714 -0.549556 3.449347 -69.112869 -6.351624 -8.342030 -0.214322 -15.129457 112.748520 -52.203384 -51.074661 35.658409 -7.518689 1.423871 41.118435 0.000013 0.000007 -18.909155 -0.000036 -0.000029 -13.010186 0.000680 0.000021 0.000253 -0.191007 0.102141 1.901172 -1.465428 -0.089487 -0.156919 -1.560279 -0.072992 -0.096096 0.000013 -0.000479 -0.000009 -2.460421 0.048182 -3.480515 -2.292222 -0.045516 -0.066964 -2.229525 -0.017314 -0.050878 -0.000566 0.000015 -0.000025 -10.034458 -0.035263 -11.306980 -5.730009 0.083125 0.042511 -5.303100 0.028169 0.035910 -0.000017 0.000014 0.000002 -15.821241 -0.159627 -20.057884 -9.538398 0.174447 0.143434 -9.657517 0.092864 0.067616 -0.000700 0.000008 -0.000035 0.000000 0.000000 0.000000 0.000000 0.000000 0.000000 -5.992023 -13.855896 18.848322 -0.106960 -0.895068 4.796215 1.155295 -9.163064 15.765254 -1.176550 1.123283 -17.278099 0.000000 0.000000 0.000000 0.000000 0.000000 0.000000 0.000000 0.000000 0.000000 2.934082 -0.819481 11.960565 0.112767 0.632207 10.255261 0.260282 3.595211 17.155512 0.638064 -0.666907 -20.251423 0.000000 0.000000 0.000000 0.000000 0.000000 0.000000 0.000000 0.000000 0.000000 
